<svg version="1" xmlns="http://www.w3.org/2000/svg" width="682.667" height="682.667" viewBox="0 0 512.000000 512.000000"><path d="M1.8.7C.2 1.1.1 8.6.2 113.3c0 73 .4 112.6 1 113.4.7.9.7 1.7.1 2.5-1.3 1.7-1.5 20.9-.2 22.4.6.8.7 1.4 0 1.8-.6.4-.9 13.9-.9 35.6.1 31.5.2 35 1.7 35 1.4.1 1.4.2-.1 1.1-1.5.8-1.7 3-1.7 18.9 0 16.2.2 18 1.7 18 1.6.1 1.6.1.1 1-1.4.8-1.7 2.8-1.8 11.5 0 7.7.3 10.5 1.2 10.5.9 0 .9.2 0 .8-.9.6-1.1 15.7-1 63.2l.2 62.5 69.2.2c59.9.2 69.2 0 69.7-1.2.3-.8 1.1-1.5 1.7-1.5.9 0 .9.3 0 1.4-1 1.2 9.1 1.4 67.4 1.4l68.6.1-.6-3.2c-.3-1.8-.7-6.1-.9-9.7-.6-9.7-1.8-28.2-2.1-31-.1-1.4-.3-4-.4-5.8-.1-2.6-.5-3.2-2.3-3.2-2.3 0-2.3 0-1.7 12.7.6 12.5.1 15.4-2.5 15.2-.7 0-.6-.3.2-.6 1.2-.5 1.1-7-.4-21.9l-.5-5.1-13.7-.6c-7.5-.3-15.3-.8-17.2-1.1-1.9-.3-5.5-.8-7.9-1.1-2.5-.3-4.7-.8-5-1-.3-.1-2.2-.6-4.1-.9-6-.9-15-3.5-26.9-7.6-6.3-2.2-11.6-3.8-11.7-3.7-.1.1-3.2 6.9-6.9 15.2-6.6 14.9-8.5 18.4-8.5 15.3 0-1.4 2.1-6.5 8.1-19.5 1-2.4 1.9-4.6 1.9-4.9 0-.3.7-2.1 1.6-4 .9-1.9 1.5-3.6 1.3-3.8-.2-.1-4.2-2.2-8.9-4.6-6.8-3.5-8.6-4-9.3-2.9-.4.8-4.6 8.1-9.2 16.4-4.7 8.2-9 15.2-9.6 15.4-1.9.6-.1-3.4 6.3-14.2 7.2-12.3 8-13.7 7.4-13.7-.2 0-3.1 4.5-6.2 10-3.2 5.5-6.3 10-6.7 10-.5 0-.6-.8-.2-1.8.4-.9.8-2.4.9-3.2 0-.8.6-1.8 1.3-2.2.6-.5 2.6-3.4 4.3-6.5 1.8-3.2 4.4-7.8 5.8-10.2 4-6.9.4-4.3-3.9 2.8-2.1 3.5-4 6.8-4.2 7.4-.3.9-.8.9-1.7 0-1-.9-.8-1.7.7-4 2.9-4.2 6.8-10.9 5.6-9.8-.6.5-3.1 4.3-5.6 8.2-4.3 6.7-6.7 8.9-6.7 6.2 0-.5-.5-.7-1.2-.3-.7.4-.8.3-.4-.5.4-.6 1.1-.9 1.6-.6 1.1.7 3.3-3.2 2.5-4.4-.6-1.1-2.4-.9-4.4.3-1.1.7-1.1 1 0 1.8.9.6.6.7-1.1.3-2.2-.5-3.1.1-6.5 4.9-3.9 5.4-5.5 6.7-5.5 4.6 0-1 5.9-10 8.7-13.2.8-.9 1.5-2.2 1.7-3 .1-.7.5-1.9.9-2.6.5-.6.6-1.2.3-1.2-.8 0-7.1 9.2-6.9 10.1.2.5-.1.9-.6.9-1.5 0-14.3 17.9-13.6 19 .4.6.2.9-.4.8-.6-.2-2.1 1-3.5 2.7-1.3 1.6-2.7 2.7-3.1 2.3-.4-.4 3.4-6.3 8.4-13.2 5-6.9 8.9-13.1 8.7-13.8-.1-.7-.1-1 .1-.5.7 1.1 2.3-.2 2.3-2 0-.9-.6-1.3-1.5-1-.8.4-1.7.2-2-.3-.9-1.4-7.9 4-12.5 9.6-2.8 3.4-3.6 5-2.7 5.6.8.5.7.8-.5.8-.9 0-3.2 1.9-5.2 4.2-5.6 6.8-5.4 3.5.3-3.7 4.6-5.8 5.1-6.9 3.9-8.3-1.1-1.5-1.1-1.5.3-.5 1.7 1.3 1.1 1.8 9.8-9.1 1.7-2.1 3.1-4.3 3.1-4.9 0-.6 1.1-2.5 2.6-4.4 3.5-4.6 1.4-4.1-3 .7-2 2.2-3.8 4-4.1 4-1.3 0-.3-2.9 1.6-4.6 1.2-1 3-3.1 4-4.6 1.9-2.6 1.9-2.6-.3-2-1.6.4-1.9.2-1.3-.9.5-.8-.4-.3-1.8 1-2.7 2.5-3.6 5.1-1.6 5.1.5 0 .7.5.4 1.1-.5.6-1.2.4-2.1-.8-.8-1.1-1.3-1.3-1.4-.6 0 .7-.6 1.3-1.2 1.3-.7 0-3.4 2.3-5.9 5.1-2.5 2.9-5.1 5-5.7 4.8-.6-.2 2.5-4.6 6.9-9.7s7.7-9.7 7.4-10.3c-.4-.5-.1-1.8.5-2.7.7-.9-.9.7-3.5 3.5-5 5.6-6 6.2-6.9 3.8-.3-.8-.2-1.4.2-1.2 1 .3 8.6-8.2 7.9-8.9-.3-.3-2 1.3-3.8 3.5-1.8 2.3-3.8 4.1-4.4 4.1-1.4 0-23.7 23.5-22.9 24.2.4.4-2.9.4-4.6-.1-.2 0 4.4-5 10.3-10.9s10.5-11 10.3-11.3c-.3-.3 3-4 7.3-8.3 4.8-4.8 7.7-8.4 7.4-9.3-.3-.7.3-2.3 1.2-3.3 1.5-1.7 1.5-2 .3-2-.8 0-2.3.9-3.3 2s-2.4 2-3.2 2c-.7 0-1.6.7-1.9 1.5-.8 2.1-2.1 1.9-2.7-.5-.3-1-.2-1.8.2-1.7.3.1 1.9-.8 3.4-1.9 2.7-2.2 3.6-4.4 1.7-4.4-.5 0-.9.3-.7.7.1.5-.1.8-.5.8s-2.3 1.6-4.2 3.4c-2.6 2.5-3.9 3.2-4.7 2.4-.7-.7.6-2.5 4.5-6 3.1-2.7 5.3-5.3 4.9-5.6-.3-.4-1.4 0-2.4.9-2.5 2.2-3.6-.2-1.2-2.9 1.5-1.9 1.6-2 0-.8-2 1.5-2.3.2-.4-1.9.6-.7-.3-.3-2 .9-2.5 1.7-3.3 1.9-3.3.8 0-.8.7-2 1.5-2.7.8-.7 1.5-1.7 1.5-2.3 0-.5-.8-.3-1.7.5-3.8 3.3-15.5 11-16 10.5-.2-.3 2.6-3 6.3-6.1 3.8-3.1 6.8-6.4 6.9-7.5.1-1.7-.2-1.8-1.8-.9-1.6.8-1.7 1.2-.6 2 1 .6.6.7-1.1.2-3.6-.9-3.7-1.2-1-3.2 4.5-3.2 4.6-3.3 3.3-3.9-.7-.2-1.3-.9-1.3-1.4 0-.6-.8-1.8-1.8-2.9-1.8-1.9-1.8-1.9-5 0-1.8 1.1-3 2.5-2.7 3 .3.5 0 .8-.7.5-.7-.3-3.7 1-6.5 2.9-3.3 2.2-5.5 3.1-5.9 2.4-.4-.6.1-1.5 1-2 1-.5 3.2-2.2 4.9-3.7 1.8-1.5 4.9-3.8 6.9-5.1 3.7-2.5 4.8-4 2.8-4-.6 0-1.3.7-1.6 1.5-.4.8-1.4 1.5-2.4 1.5-1.1 0-2.2.4-2.5 1-.3.5-1.3 1-2.1 1-2.7 0-1.4-1.9 3-4.5 3.6-2.1 4.3-3.1 4.2-5.3 0-1.5-1-3.6-2.1-4.8-1.1-1.1-2.5-2.9-3-3.9-1-1.6-2.6-1-18.4 6.9-16 8.1-21.8 10-16.4 5.6 1.2-.9 1.9-2.1 1.5-2.5-.4-.5-.2-.5.5-.1.7.3 7.9-2.7 16.2-6.8l15-7.5-1.5-3.1c-.9-1.7-1.9-2.8-2.4-2.5-.4.3-.6-.3-.3-1.3.2-1.1-.3-2.6-1.2-3.5-1.3-1.3-1.3-2-.4-3.5 1.3-2.1.6-5.2-1.1-5.2-.7 0-.7.6 0 2.1.7 1.1.9 2.3.6 2.6-.5.5-2.6-4-2.6-5.6 0-1.2-5-.6-10.3 1.2-2.6 1-5.2 1.7-5.7 1.7-1.4 0-1.2-2 .3-2.5.6-.2 4-1.4 7.4-2.6 5.9-2 6.2-2.3 5.6-4.8-.3-1.4-.7-2.8-.9-2.9-.5-.7-3.9 1.7-3.6 2.5.2.4-.1.9-.7 1.1-.6.2-.8-.3-.5-1.1.4-1.2-.3-1.2-4.8.3-2.9 1-5.7 1.4-6.2.9-.5-.4-1.8-.3-3 .3s-2.2 1.1-2.3 1c-.9-.6-2.3 0-1.8.7.3.5 0 1.3-.6 1.7-.8.4-.9.3-.5-.4.5-.8-.1-1.2-1.6-1.2-1.6 0-1.9.3-1 .8.8.6 0 .8-2 .8-1.8 0-9.6 1.9-17.3 4.2C3 330.4 3 330.4 3 329c0-1.3 3.1-2.5 15-5.6 5.2-1.4 11.5-3.2 14-4.1 2.5-.8 5-1.6 5.5-1.7 7.4-1.8 16.2-5.1 15.3-5.7-.7-.5-.9-1.1-.5-1.5.3-.4 1.3-.1 2.1.5 1.9 1.6 8.6-.3 8.6-2.5 0-.8.5-1.4 1.1-1.4 1.1 0 1-.7-.6-8.9-.5-2.7-2.5-5.3-2.5-3.3 0 .6-.7.9-1.5.6-.9-.4-1.4-1.2-1.3-1.9.2-.8 0-1.4-.5-1.5-1.3-.3-12.3 1.6-39.5 6.6-8.8 1.6-12.4 1.4-9.2-.6.8-.6 2.7-1 4.2-1s3.3-.6 4.1-1.4c.8-.8 2.9-1.7 4.8-2 1.9-.3 6.6-1.1 10.4-1.7 3.9-.6 7.7-1.3 8.5-1.4.8-.2 2.3-.4 3.3-.4 1-.1 1.6-.4 1.4-.9-.3-.4 1.9-.7 4.7-.8 8.6-.1 8.4.2 7-11-.7-5.4-1.1-10.2-.8-10.6.3-.4-1.5-.8-4-.8-5.5 0-6.1-1.6-.8-2.5 3.1-.5 3.7-1 3.7-3 0-2.3-.4-2.5-4.2-2.5-5.6 0-5.5-1.7 0-2.5 4.2-.6 4.3-.7 4.2-4.5 0-2.1-.3-4.1-.6-4.4-.3-.3-4.3-.9-9-1.3-5-.5-8.2-1.2-7.9-1.8.3-.6 1.3-1 2.2-.9.9 0 1.5-.3 1.3-.6-.2-.4-3.9-.8-8-.8-7.8-.2-9.5-.6-9.5-2.3 0-.6 3.6-.8 9.3-.5 5.4.2 8.2.1 6.7-.4-1.4-.4-5.1-.8-8.2-.9-5.9-.1-21-2-21.7-2.7-1.3-1.3 2.2-1.3 17.3-.3 9.2.6 16.9.9 17.1.7.2-.2-.5-1-1.7-1.7-1.1-.7-1.7-.8-1.3-.2.3.6.1 1.1-.4 1.1-.6 0-1.1-.7-1.1-1.5 0-.9 1-1.5 2.8-1.6 2.7-.1 2.7-.1.3-.8-3.6-1-4-3.3-.4-2.6 1.5.3 2.2.2 1.6-.1-.7-.3-1.3-1.1-1.3-1.7-.1-2-7.8-6.7-9.6-6-1.1.4-1.5.2-1.1-.4.8-1.3-1.4-2.3-5.1-2.3-3 0-5.9-1.5-4.6-2.3.5-.2 4.7.1 9.4.8 7 1 8.7 1 9.8-.1.7-.8 1.7-1.4 2.2-1.4 1.6 0 1.8-2.8.4-4.7-.9-1-1.3-1.3-1-.7.3.7 0 1.4-.8 1.7-1 .4-1.2 0-.9-1.4.3-1 0-2.6-.7-3.4-.9-1-.9-1.5-.1-1.5.6 0 1.1.5 1.1 1.1 0 .7 1 .9 2.6.5 1.4-.4 2.3-.3 2.1.1-.3.5 1.5 1.3 3.9 1.9 2.5.6 4.7.7 4.9.3.7-1-3.6-2.4-16.7-5.5-6.5-1.6-11.8-3.2-11.8-3.7 0-1.3 2.2-.9 21.5 3.8 16.4 4 16.2 4 16.8 1.3.4-1.3.7-2.7.9-3.2.2-.5-.8-1.3-2.2-1.7-24.3-7-23.3-6.7-22.6-7.8.3-.5 5.8.6 12.2 2.5 6.4 1.9 12.1 3.3 12.7 3.1.6-.2 2.9-5.3 5-11.3 7.3-20.4 7.9-21.9 8.8-22.2 1.7-.7.9-2-2-3.2-1.6-.6-3.1-1.9-3.4-2.8-.2-1-7.7-5.5-16.6-10.2-14.4-7.6-18-10-15.2-10 .5 0 3.8 1.6 7.3 3.6 11.2 6.4 23.3 12.1 24.5 11.7.7-.2 2.2.1 3.5.7 2.1 1 2.2 1 .5-.4-2-1.6-2-6.3.1-5.9.6.2 1.2-.4 1.2-1.2 0-.8-.6-1.4-1.2-1.2-.7.1-1.2-.4-1.1-1.1.2-.6-.2-1.2-.7-1.2-.6 0-1-.5-1-1 0-1.3 4.7-.5 6.8 1.2 1.5 1.1 1.5 1.1.6-.2-.6-.8-.8-2.4-.4-3.4.4-1.4.9-1.6 1.4-.8.4.7 1.2 1.2 1.9 1.2.6 0 .1-.7-1.1-1.6-1.2-.8-2.2-2.2-2.2-3.1 0-1.4.3-1.4 2.4.1 1.6 1 2.7 1.2 3.1.6.3-.6-.1-1.3-.9-1.6-2.7-1.1-1.8-2.7 1.2-2 1.8.5 2.2.4 1.3-.3-.8-.5-1.1-1.6-.7-2.6.3-1 .1-2.4-.5-3.2-1.9-2.2-.1-2.8 2.3-.7 1.9 1.7 2.1 1.7 1.5.1-.7-2 .3-2.2 2.3-.5.8.7.5.1-.8-1.3-2.4-2.8-2.9-4.4-.9-3.3.6.3-.5-.8-2.5-2.5-5.3-4.6-5-7.3.3-2.9 2.2 1.8 5.5 4.1 7.2 5.1l3.2 1.9-2.8-2.5c-2.3-2-2.6-2.5-1.3-3 .8-.3 1.8-.2 2.1.3.3.6 1.6 1.5 2.8 2.2 1.9 1 2 .9.9-.4-1-1.2-1-1.7.1-2.7.8-.6 1.8-.7 2.3-.3.5.4.5.3.1-.3-.5-.6-1.3-1-1.8-1s-.8-.3-.6-.7c.4-1.3-10.7-11.8-12.5-11.8-1 0-1.8-.5-1.8-1.1 0-.5.4-.8.9-.5.5.4 1.1.1 1.3-.5.2-.7 3.5 1.8 7.3 5.4 9.2 8.7 10.9 8.6 2.2-.1-3.7-3.7-6.7-7-6.7-7.4 0-.3.7-.9 1.6-1.2.8-.3 1.3-.2 1 .2-.3.5 2.6 3.9 6.4 7.7 5.1 5 7.3 6.6 8.1 5.8.8-.8.8-1.3 0-1.7-1.2-.8-1.5-4.6-.4-4.6.4 0 1.7 1 2.9 2.1l2.3 2.1-.6-2.3c-.5-2-.3-2.2.8-1.2 1.8 1.8 3.4 1.6 1.9-.2-1.7-2.1-.5-3.3 3-2.9 2.3.3 4.1-.6 8.3-4 5.2-4.2 11.6-8.9 20.5-14.9 3.6-2.5 4.1-3.1 3-4.4-.7-.9-1.1-2.7-1-4.1.2-1.4 0-2.2-.6-1.8-.6.3-1.3.2-1.7-.4-.3-.5-.2-1 .4-1 .6 0 .1-1.6-1-3.5-1.2-1.9-1.9-4-1.7-4.7.2-.6 2.4 2.1 4.9 6.2 2.4 4 5.1 7.4 6 7.6 1.4.2 1.3-.5-.7-4-1.3-2.2-2.4-4.5-2.4-5 0-1.5 3.1 1.7 5.1 5.3 2 3.6 2 3.6 1.4.6l-.5-3 1.5 2.5 1.6 2.5-.6-3-.6-2.9 2.1 1.9c1.8 1.6 2 1.6 1.4.2-.4-1.1-.1-1.7.9-1.7.8 0 1.7.3 2 .7.2.5.2.2 0-.5-.2-.8-.6-2.6-.9-4l-.6-2.7 2.1 2.5 2.2 2.5-.7-2.8c-.7-3.2 1.1-3.8 2.1-.6.4 1.1.9 1.9 1.1 1.7.2-.2-.5-2.8-1.6-5.6-1.1-2.9-2-5.7-2-6.2 0-1.9 1.8-1 2.3 1.2.4 1.3 1.3 3.2 2.2 4.3 1.3 1.8 1.3 1.6 0-1.7-1.7-4.2-1.9-5.8-.7-5.8.5 0 2 2.7 3.3 6 1.3 3.3 2.5 5.6 2.7 5 .2-.5.9-.7 1.5-.3.7.4.8 0 .3-1.3-.4-1-1.7-4.4-2.9-7.4s-2.6-5.8-3.2-6.2c-.7-.5-.6-.8.2-.8 1.9 0 4 2.7 5.9 7.7 1 2.7 2.4 5.7 3.2 6.8l1.4 2-.7-2c-.4-1.1-1.1-3.4-1.5-5-.4-1.7-1.5-5-2.4-7.5-1.1-2.8-1.3-4.6-.7-4.8.7-.2.5-1.7-.4-3.9-1.7-4.1-1.9-5.3-.6-5.3.4 0 2.3 3.8 4 8.5 3 7.7 3.9 9 6.4 8.6.5-.1.5.3.2.9-.4.6-.1 2.5.6 4.2 1.1 2.6 1.6 2.9 4.3 2.4 1.6-.4 3.2-1 3.6-1.4.3-.4 1.8-.8 3.5-.9 1.6-.1 3.1-.7 3.3-1.3.2-.5.7-.8 1.2-.5 1.2.7 16.4-2.6 17.1-3.8.4-.5.9-.4 1.3.2.4.6 1.2.9 1.7.5.6-.3 6.5-1.1 13.2-1.8 10.7-1 12.2-1.3 11.9-2.9-.2-.9.2-1.7.8-1.7.5 0 1 .7 1 1.5 0 1.1 1.2 1.5 4.8 1.5 2.6 0 6.4.3 8.5.6l3.7.7v-5.9c.1-9.2 1.7-20.5 3-21.7 1-1 1.1 1.5.6 11.6-.4 8.6-.3 12.6.4 12.2.5-.3 1-.1 1 .4 0 .6-.5 1.1-1.1 1.1-.6 0-.9.6-.7 1.2.3.7 2.2 1.4 4.4 1.5 2.1.2 5.9.6 8.4.9 2.5.4 5.2.8 6 .9 10.2 1.6 42.9 11.3 45.7 13.7.7.5 1.6.7 2.2.4.5-.3 1.1-.2 1.3.3.5 1.3 10.5 6.1 12 5.8.7-.2.9-.2.5.1-.7.4 13.4 9.2 14.8 9.2.3 0 .5-.8.5-1.8 0-1.4.2-1.5 1-.2.6.9.5 1.7-.2 2.1-.6.4 1 2 3.6 3.8 2.5 1.8 4.6 2.7 4.6 2.1 0-.6.5-.8 1-.5.6.4.8 1 .6 1.4-.3.4 2.2 3 5.6 5.7 3.4 2.7 8.8 7.3 12 10.3l5.9 5.5 3.9-3.9c2.2-2.1 4.3-3.6 4.6-3.2.4.4.2 1.3-.4 2-.7.8-.8 1.8-.4 2.2.4.5.2.5-.4.2-1.3-.7-6.1 4-5.1 5 .4.3.7.1.7-.6s.5-.9 1.1-.5c.6.3 3.5-1.7 6.5-4.7 2.9-2.9 5.7-5 6.1-4.6.4.4-2.2 3.5-5.8 6.9-3.5 3.3-5.4 5.2-4.1 4.3 1.2-1 2.5-1.5 2.9-1.1.4.3-.3 1.3-1.5 2.2-1.2.8-2 2-1.6 2.5.3.5 1.8.1 3.4-1.1 4.3-3.1 5.6-2.4 2 1-3.6 3.4-3.5 5.1.2 2.6 1.2-.9 2.7-1.6 3.3-1.6.5 0 .3.5-.5 1s-1.1 1-.6 1c.4 0 3.7-2.3 7.2-5.1s6.4-4.7 6.4-4.3c0 .4.9-.1 1.9-1 1.1-1 2.5-1.6 3.2-1.4.6.2-1.9 2.8-5.6 5.7-4.8 3.8-6.4 5.6-5.4 6.1.7.5 2.1.4 3.2-.1 1.4-.8 2.2-.7 3.1.7 1.2 1.6 2 1.2 9.5-4.4 4.5-3.4 8.4-6.2 8.6-6.2 1.5 0 .1 2.8-2.1 4.1-1.5.9-2.2 1.9-1.7 2.2.5.3 4-1.6 7.9-4.3 3.8-2.7 7.3-4.9 7.8-5 2 0-2.6 3.7-15.1 12.7-7.3 5.2-13.3 9.7-13.3 10 0 .3 3-1.7 6.8-4.3 3.7-2.6 8.5-6 10.7-7.4 10-6.7 18.7-12.6 20-13.5 1.2-.8 3.5 0 2.4.8-.2.2-5.5 3.8-11.7 8.1-6.6 4.6-11 8.2-10.6 8.8.4.7.2.8-.5.4-1-.6-6.7 2.6-8.1 4.6-.3.4-3.9 3.2-8 6.3-4 3-6.8 5.5-6.2 5.5.6 0 1.4-.4 1.7-1 .9-1.4 10.2-5.9 10.9-5.2.3.3-1.3 1.8-3.6 3.4-2.4 1.5-4 2.8-3.5 2.8.4 0 2.4-1.1 4.5-2.4 2.6-1.7 4.5-2.3 6.5-1.9 2.5.5 2.6.6 1 1.9-1.6 1.1-1.4 1.2 1.2.5 2.2-.6 2.9-1.3 2.7-2.7-.2-1.4-.1-1.6.6-.6 1 1.4 1.2 1.4 13.1-5.3 2.4-1.4 4.8-2.5 5.3-2.5 2.3 0 0 1.9-7.5 6.3-16.8 9.9-26.2 16.2-26.2 17.7.2 2.6 1.7 5 2.8 4.3.5-.3.7-.1.4.5-.4.5-.4 1.7-.1 2.6.5 1.3 1.7 1 7.6-2 3.8-1.9 7.5-3.3 8.1-3.1.7.2 2.9-.4 5-1.5 5.5-2.8 4.5-.3-1.3 3-5.7 3.3-5.7 5.1.1 2.2 2.1-1.1 4.3-2 4.9-2 2.4 0 .5 1.7-5.1 4.4-3.2 1.6-5.9 3.3-5.9 3.8s-.4.6-1 .3c-.7-.4-6.2 1.6-7.8 3-.2.1 1.5 4.9 3.6 10.6 4.7 12.3 8.6 25 10.3 33.6.7 3.5 1.6 6.3 2 6.3.4 0 5.3-.9 10.9-2 11-2.2 14-2.4 14-1.2 0 .8-7.2 2.5-15.5 3.8-2.2.3-5.7 1-7.8 1.6l-3.9.9.7 6.2c.4 3.4.9 6.9 1 7.7.1.8.6 5.2 1 9.7.4 4.6 1.1 8.3 1.7 8.3.5 0 .6-.5.3-1-.3-.6-.1-1 .4-1 .6 0 1.1.4 1.1 1 0 .5.9 1 2 1s2 .4 2 1c0 .5-.8 1-1.9 1-1.6 0-1.8.9-2 7.7-.1 4.2-.4 8-.6 8.4-.5.8 6.1 2.2 7.3 1.6 1.5-.8 18.7 1.8 18.2 2.8-.3.5-1.2.9-2 .8-.8-.1-5.8-.5-11-.8-5.2-.4-10.2-.8-11-1.1-1.1-.3-1.6.4-1.8 2.1-.2 3 .2 3.2 8.8 4 6.1.6 10.1 1.8 9 2.8-.3.2-4.4-.1-9.2-.8-4.9-.6-8.8-.8-8.8-.3 0 .4 1.5.8 3.3.9 1.7 0 4.1.2 5.2.5 1.1.2 5.7.8 10.2 1.4 10.5 1.3 11.7 1.8 10.2 3.7-.8.8-1.5 1-1.8.4-.6-.9-12.6-2.8-23.6-3.7-3.8-.2-4.5-.1-2.7.6 2.7 1.1 3 3.4.3 2.5-2.2-.7-2.4-.3-4.5 10-1.5 7.1-.9 9.2 2.2 8 .6-.2 1.2-.1 1.2.4 0 .4.6.8 1.3.8.6 0 2.3.3 3.7.7 1.8.5 2.1.5 1-.3-.8-.5-1.2-1.2-.9-1.6.3-.3 1.6.4 2.9 1.5 2 1.7 3.1 2.2 4.3 1.9.1 0 1.6.5 3.2 1.1 1.7.6 9 2.7 16.3 4.5 7.3 1.8 13.6 3.6 13.9 3.9 1.8 1.7-1.5 1.5-11.2-.9-8.2-2-11-2.4-11.5-1.5-.4.7-1.2 1-1.8.6-1.7-1-8.1-1.5-8.7-.7-.2.5-4.2-.2-8.7-1.5-9.9-2.8-11.2-2.9-10.4-.8.3.8.2 1.3-.3 1-.5-.3-1.2.6-1.5 2.2-1 3.9-11.6 30.4-13 32.2-4.9 6.5-5.5 11.6-1.5 11.3 1.3-.1 1.8.1 1.1.4-1 .4-1 .8-.1 1.9.9 1.1.8 1.4-.4 1.4-.9 0-1.9-.5-2.2-1.1-.4-.6-1.4-.8-2.2-.5-.8.3-1.2.2-.9-.3.6-1-2.4-2.5-3.2-1.6-.3.3.1.5.8.5 1 0 .9.4-.3 1.7-1.7 2-6.7 11.2-6.7 12.4 0 .5.5.9 1.1.9.6 0 1.7.7 2.6 1.5.8.8 6.6 5.2 12.9 9.7 10.3 7.4 12.9 9.8 10.6 9.8-.8 0-9.2-5.8-10.2-7.1-.9-1.1-5.5-3.3-6.3-3.1-.5.1-.6-.2-.2-.7.3-.6-.5-1.5-1.7-2.2-1.3-.7-3.9-2.5-5.8-4.1-3.3-2.7-6-3.6-6-2.1 0 .8-4.5 6.1-16.1 18.9-3 3.4-9.6 9.7-14.5 14-4.9 4.2-9.1 8-9.4 8.3-.3.3-1.4 1.1-2.5 1.8-11.7 7.1-18.5 11.7-18.5 12.5 0 .5-.4.6-1 .3-1.2-.8-1.3 1.7-.1 3 1.1 1.2 10.1 18 10.1 18.9 0 2.3-2.3-.8-7.4-9.9-5.2-9.3-6-10.3-7.7-9.4-1 .5-1.9 1.2-1.9 1.4 0 .3 1.7 3.8 3.7 7.9 2.7 5.4 4.1 7.3 5.2 6.9 1.2-.4 1.3-.3.3.5-1.1.7-.5 2.6 2.8 9.2 2.3 4.5 3.9 8.5 3.6 8.8-1 .9-1.8-.4-10.1-16.7l-8-15.8-4.2 1.8-4.3 1.8 1.9 4.3c1 2.4 4.4 10 7.5 17 6 13.5 6.1 13.8 4.7 13.8-.7 0-4-6.8-14.8-30.7-1.2-2.6-1.9-3.1-3.2-2.4-.9.5-6.1 2.4-11.5 4.2-5.4 1.8-10 3.8-10.3 4.5-.2.7 1.8 9 4.6 18.5 2.7 9.6 4.8 17.6 4.5 17.8-1.4 1.5-4.1-6.4-10.6-31.7-1.1-4-1.4-4.3-3.7-3.8-12.3 2.7-17.1 3.6-21 4.1-2.5.3-6.3.8-8.3 1.1l-3.7.6.5 5.6c.3 3.1.7 6.3 1 7.1.2.8.7 7.7.9 15.5.3 7.8.9 16.6 1.3 19.6l.7 5.5h228l.3-22.9c.2-17.8 0-23.1-1-23.8-.9-.5-.9-.8-.1-.8s1.1-46.3 1-187.4c-.1-103.1-.5-187.8-.9-188.1-.4-.4-.4-1.5.1-2.4.5-.9.9-13 1-26.9.1-19.8-.1-25.2-1.1-25.2-.9 0-.9-.3-.2-.8.7-.4 1-6.3 1-16.7l-.1-16-34.2-.2C453 .1 443 .4 443 1.2c0 .7-.4.7-1.2.1-1.7-1.4-5.1-1.3-6 .1-.6.8-1 .8-1.5 0S428.9.2 419.8.2C406.9.2 406 .3 406 2.1c0 1-.5 1.9-1 1.9-.6 0-1-.8-.8-1.8.3-1.6-1.9-1.7-33.2-1.8-20.1-.1-34.2.2-35.4.8-1 .6-2.1.6-2.5.1-1-1.3-31.1-1.6-31.1-.2 0 .8-.6.7-1.7-.2-1.3-1.1-1.7-1.1-2-.1-.3.7-1 .9-1.6.5-.7-.5-12.4-.8-26-.9-21.8-.1-24.9.1-25.7 1.5-.8 1.4-.9 1.4-1 .1 0-1.4-2.7-1.6-19.2-1.7-13.8-.1-19.5.2-20 1-.6.9-1 .9-1.5.1-.9-1.3-52-1.4-54-.1-.6.4-1.4.3-1.7-.2C147 .3 5.3-.2 1.8.7zM190 5.5c0 .8-.4 1.5-1 1.5-.5 0-1-.7-1-1.5s.5-1.5 1-1.5c.6 0 1 .7 1 1.5zM49 6c0 .5-.2 1-.4 1-.3 0-.8-.5-1.1-1-.3-.6-.1-1 .4-1 .6 0 1.1.4 1.1 1zm51.5 2c.3.6-.1.7-.9.4-1.8-.7-2.1-1.4-.7-1.4.6 0 1.3.4 1.6 1zm-12 1c.3.5.1 1-.4 1-.6 0-1.1-.5-1.1-1 0-.6.2-1 .4-1 .3 0 .8.4 1.1 1zm372.1 2.8c-1.8 1.6-1.8 1.6-.6-.6.6-1.3 1.4-2.1 1.8-1.8.3.4-.2 1.4-1.2 2.4zm-351.1-.9c.3.5.1 1.2-.5 1.6-.5.3-1-.1-1-.9 0-1.8.6-2.1 1.5-.7zM281 11c0 .5-.4 1-1 1-.5 0-1-.5-1-1 0-.6.5-1 1-1 .6 0 1 .4 1 1zm-52 1c0 .5-.4 1-1 1-.5 0-1-.5-1-1 0-.6.5-1 1-1 .6 0 1 .4 1 1zm9 2c0 .5-.5 1-1.1 1-.5 0-.7-.5-.4-1 .3-.6.8-1 1.1-1 .2 0 .4.4.4 1zm214-.6c0 .3-.4.8-1 1.1-.5.3-1 .1-1-.4 0-.6.5-1.1 1-1.1.6 0 1 .2 1 .4zM243 15c0 .5-.2 1-.4 1-.3 0-.8-.5-1.1-1-.3-.6-.1-1 .4-1 .6 0 1.1.4 1.1 1zm-80.5 3c.3.5.2 1-.4 1-.5 0-1.3-.5-1.6-1-.3-.6-.2-1 .4-1 .5 0 1.3.4 1.6 1zm47 1c.3.5.1 1-.4 1-.6 0-1.1-.5-1.1-1 0-.6.2-1 .4-1 .3 0 .8.4 1.1 1zm204.5.4c0 .3-.4.8-1 1.1-.5.3-1 .1-1-.4 0-.6.5-1.1 1-1.1.6 0 1 .2 1 .4zM371 21c0 .5-.2 1-.4 1-.3 0-.8-.5-1.1-1-.3-.6-.1-1 .4-1 .6 0 1.1.4 1.1 1zM87 23.1c0 .5-.4.9-1 .9-.5 0-1-.7-1-1.6 0-.8.5-1.2 1-.9.6.3 1 1 1 1.6zm95.5-1.1c.3.6-.1.7-.9.4-1.8-.7-2.1-1.4-.7-1.4.6 0 1.3.4 1.6 1zM115 24.6c0 .8-.4 1.2-1 .9-.5-.3-1-1-1-1.6 0-.5.5-.9 1-.9.6 0 1 .7 1 1.6zm230.1.7c-1 .9-1.1.8-.5-.6.3-1 .9-1.5 1.2-1.2.3.3 0 1.1-.7 1.8zm-211.6.7c.3.5.1 1-.4 1-.6 0-1.1-.5-1.1-1 0-.6.2-1 .4-1 .3 0 .8.4 1.1 1zm103 1c-.3.5-1.1 1-1.6 1-.6 0-.7-.5-.4-1 .3-.6 1.1-1 1.6-1 .6 0 .7.4.4 1zm182 3c.3.5.1 1-.4 1-.6 0-1.1-.5-1.1-1 0-.6.2-1 .4-1 .3 0 .8.4 1.1 1zm-272.9 7.4c-.1 1.8-.4 2.2-1.3 1.4-1-.8-1-1.3 0-2.3.7-.8 1.3-1.4 1.3-1.5.1 0 .1 1.1 0 2.4zM421.5 39c.3.5.1 1-.4 1-.6 0-1.1-.5-1.1-1 0-.6.2-1 .4-1 .3 0 .8.4 1.1 1zm-32 2c.3.5.1 1-.4 1-.6 0-1.1-.5-1.1-1 0-.6.2-1 .4-1 .3 0 .8.4 1.1 1zm-369.8.6c-.3.3-1.2.4-1.9.1-.8-.3-.5-.6.6-.6 1.1-.1 1.7.2 1.3.5zm47 1c-.3.3-1.2.4-1.9.1-.8-.3-.5-.6.6-.6 1.1-.1 1.7.2 1.3.5zm378 0c-.3.3-1.2.4-1.9.1-.8-.3-.5-.6.6-.6 1.1-.1 1.7.2 1.3.5zM270 47.5c0 .8-.7 1.5-1.6 1.5-1.4 0-1.4-.3-.4-1.5.7-.8 1.4-1.5 1.6-1.5.2 0 .4.7.4 1.5zM243 49c0 .5-.5 1-1.1 1-.5 0-.7-.5-.4-1 .3-.6.8-1 1.1-1 .2 0 .4.4.4 1zm-69 2c0 .5-.4 1-1 1-.5 0-1-.5-1-1 0-.6.5-1 1-1 .6 0 1 .4 1 1zm-78.5 1c.3.6-.1.7-.9.4-1.8-.7-2.1-1.4-.7-1.4.6 0 1.3.4 1.6 1zM478 53c0 .5-.2 1-.4 1-.3 0-.8-.5-1.1-1-.3-.6-.1-1 .4-1 .6 0 1.1.4 1.1 1zm-281 5c0 .5-.7 1-1.6 1-.8 0-1.2-.5-.9-1 .3-.6 1-1 1.6-1 .5 0 .9.4.9 1zm-16.2 2.5c-.3.3-.9-.2-1.2-1.2-.6-1.4-.5-1.5.5-.6.7.7 1 1.5.7 1.8zm-9.3-.5c.3.5-.1 1-1 1s-1.3-.5-1-1c.3-.6.8-1 1-1 .2 0 .7.4 1 1zM85 63.4c0 .3-.4.8-1 1.1-.5.3-1 .1-1-.4 0-.6.5-1.1 1-1.1.6 0 1 .2 1 .4zm22.7 8.8c-.3.8-.6.5-.6-.6-.1-1.1.2-1.7.5-1.3.3.3.4 1.2.1 1.9zm-46.7.5c0 .2-.6 1.1-1.4 1.8-1.2 1.2-1.4 1.1-1.2-.9 0-1.4.6-2.2 1.4-1.9.6.3 1.2.7 1.2 1zm60-.7c0 .5-.4 1-1 1-.5 0-1-.5-1-1 0-.6.5-1 1-1 .6 0 1 .4 1 1zm1 11c0 .5-.4 1-1 1-.5 0-1-.5-1-1 0-.6.5-1 1-1 .6 0 1 .4 1 1zm284 9c0 .5-.2 1-.4 1-.3 0-.8-.5-1.1-1-.3-.6-.1-1 .4-1 .6 0 1.1.4 1.1 1zm-295.5 16c.3.5.1 1-.4 1-.6 0-1.1-.5-1.1-1 0-.6.2-1 .4-1 .3 0 .8.4 1.1 1zm-10.5 1.8c0 1.3-1.2 2.2-2.2 1.6-1-.6-.1-2.4 1.3-2.4.5 0 .9.4.9.8zM49 116c0 .5-.2 1-.4 1-.3 0-.8-.5-1.1-1-.3-.6-.1-1 .4-1 .6 0 1.1.4 1.1 1zm39 0c0 .5-.2 1-.4 1-.3 0-.8-.5-1.1-1-.3-.6-.1-1 .4-1 .6 0 1.1.4 1.1 1zm-17 3c0 .5-.2 1-.4 1-.3 0-.8-.5-1.1-1-.3-.6-.1-1 .4-1 .6 0 1.1.4 1.1 1zm434 4c0 .5-.4 1-1 1-.5 0-1-.5-1-1 0-.6.5-1 1-1 .6 0 1 .4 1 1zm-422 1.4c0 .3-.4.8-1 1.1-.5.3-1 .1-1-.4 0-.6.5-1.1 1-1.1.6 0 1 .2 1 .4zM28 126c0 .5-.2 1-.4 1-.3 0-.8-.5-1.1-1-.3-.6-.1-1 .4-1 .6 0 1.1.4 1.1 1zm25 .5c-.7.9-1.5 1.3-1.9 1-.3-.3.1-1 .9-1.5 2.1-1.4 2.4-1.2 1 .5zm-31 9.9c0 .3-.4.8-1 1.1-.5.3-1 .1-1-.4 0-.6.5-1.1 1-1.1.6 0 1 .2 1 .4zm1 5.2c0 .2-.7.4-1.5.4s-1.5-.4-1.5-1c0-.5.7-.7 1.5-.4.8.4 1.5.8 1.5 1zm33.5 6.4c-.3.5-1.1 1-1.6 1-.6 0-.7-.5-.4-1 .3-.6 1.1-1 1.6-1 .6 0 .7.4.4 1zm-1.9 10.7c-1 1-1.9-.5-1-1.8.6-1.1.8-1.1 1.2 0 .2.7.1 1.5-.2 1.8zM51 161c0 .5-.4 1-1 1-.5 0-1-.5-1-1 0-.6.5-1 1-1 .6 0 1 .4 1 1zm28 .9c0 .6-.4 1.3-1 1.6-.5.3-1-.1-1-.9 0-.9.5-1.6 1-1.6.6 0 1 .4 1 .9zm-46.3 3.3c-.3.8-.6.5-.6-.6-.1-1.1.2-1.7.5-1.3.3.3.4 1.2.1 1.9zm33 13c-.3.8-.6.5-.6-.6-.1-1.1.2-1.7.5-1.3.3.3.4 1.2.1 1.9zm5.3.7c0 .6-.4 1.3-1 1.6-.5.3-1-.1-1-.9 0-.9.5-1.6 1-1.6.6 0 1 .4 1 .9zM4 182c0 .5-.2 1-.4 1-.3 0-.8-.5-1.1-1-.3-.6-.1-1 .4-1 .6 0 1.1.4 1.1 1zm28 1c0 .5-.2 1-.4 1-.3 0-.8-.5-1.1-1-.3-.6-.1-1 .4-1 .6 0 1.1.4 1.1 1zm6.5 5c.3.5.1 1-.4 1-.6 0-1.1-.5-1.1-1 0-.6.2-1 .4-1 .3 0 .8.4 1.1 1zm458.9 12.5c.3.8.1 1.5-.4 1.5-.6 0-1-.7-1-1.5s.2-1.5.4-1.5.6.7 1 1.5zm-439.5.9c.9 1.1.5 1.3-1.9 1.2-3-.1-3.6-.6-2.3-1.9 1-1.1 3-.8 4.2.7zM15 210c0 .5-.5 1-1.1 1-.5 0-.7-.5-.4-1 .3-.6.8-1 1.1-1 .2 0 .4.4.4 1zm7 0c0 .5-.4 1-1 1-.5 0-1-.5-1-1 0-.6.5-1 1-1 .6 0 1 .4 1 1zm7.5 1c.3.5.1 1-.4 1-.6 0-1.1-.5-1.1-1 0-.6.2-1 .4-1 .3 0 .8.4 1.1 1zm457.5 4.6c0 .8-.5 1.2-1 .9-.6-.4-.8-1.1-.5-1.6.9-1.4 1.5-1.1 1.5.7zm3 24.4c0 .5-.4 1-1 1-.5 0-1-.5-1-1 0-.6.5-1 1-1 .6 0 1 .4 1 1zm-446.3 6.6c-.3.3-1.2.4-1.9.1-.8-.3-.5-.6.6-.6 1.1-.1 1.7.2 1.3.5zM53 248c-2 1.3-3.3 1.3-2.5 0 .3-.6 1.4-1 2.3-1 1.5 0 1.5.2.2 1zm0 5c0 .5-.9 1-2.1 1-1.1 0-1.7-.5-1.4-1 .3-.6 1.3-1 2.1-1s1.4.4 1.4 1zm-37 9c0 .5-.4 1-1 1-.5 0-1-.5-1-1 0-.6.5-1 1-1 .6 0 1 .4 1 1zm19 1c0 .5-.4 1-1 1-.5 0-1-.5-1-1 0-.6.5-1 1-1 .6 0 1 .4 1 1zm460.5 21c.3.5.1 1-.4 1-.6 0-1.1-.5-1.1-1 0-.6.2-1 .4-1 .3 0 .8.4 1.1 1zm-10.5 6c0 .5-.2 1-.4 1-.3 0-.8-.5-1.1-1-.3-.6-.1-1 .4-1 .6 0 1.1.4 1.1 1zm-464 1c.8.5 1.2 1.1.9 1.4-.7.8-4.9-.5-4.9-1.5 0-1.2 2.1-1.1 4 .1zm28 4c0 .5-.4 1-1 1-.5 0-1-.5-1-1 0-.6.5-1 1-1 .6 0 1 .4 1 1zm-33.9 7.3c-.1 1.2-1.5.9-1.9-.4-.3-.6.1-1 .8-.8.6.3 1.1.8 1.1 1.2zM62 302c0 .5-.7 1-1.6 1-.8 0-1.2-.5-.9-1 .3-.6 1-1 1.6-1 .5 0 .9.4.9 1zm-14.5 8c.3.5-.1 1-1 1s-1.3-.5-1-1c.3-.6.8-1 1-1 .2 0 .7.4 1 1zm9.5 10c0 .5-.5 1-1.1 1-.5 0-.7-.5-.4-1 .3-.6.8-1 1.1-1 .2 0 .4.4.4 1zm-21 4c0 .5-.4 1-1 1-.5 0-1-.5-1-1 0-.6.5-1 1-1 .6 0 1 .4 1 1zm-29 .4c0 .2-.7.7-1.6 1-.8.3-1.2.2-.9-.4.6-1 2.5-1.4 2.5-.6zm22 4.7c0 .5-.4.9-1 .9-.5 0-1-.7-1-1.6 0-.8.5-1.2 1-.9.6.3 1 1 1 1.6zm27-.1c0 .5-.2 1-.4 1-.3 0-.8-.5-1.1-1-.3-.6-.1-1 .4-1 .6 0 1.1.4 1.1 1zm443 6.1c0 .6-.4.7-1 .4-.5-.3-1-1.1-1-1.6 0-.6.5-.7 1-.4.6.3 1 1.1 1 1.6zm-424.7 8.6c-.7.2-1.9.2-2.5 0-.7-.3-.2-.5 1.2-.5s1.9.2 1.3.5zm398.2 1.3c.3.5.1 1-.4 1-.6 0-1.1-.5-1.1-1 0-.6.2-1 .4-1 .3 0 .8.4 1.1 1zm-396.7 4.7c-1 .2-1.8.9-1.8 1.5s-.3.9-.6.5c-1-1 .6-2.7 2.4-2.6 1.5.1 1.5.2 0 .6zM53 375.4c0 .2-.7.9-1.5 1.6-1.3 1.1-1.4 1-.9-.4.5-1.4 2.4-2.3 2.4-1.2zm372 2.6c0 .5-.5 1-1.1 1-.5 0-.7-.5-.4-1 .3-.6.8-1 1.1-1 .2 0 .4.4.4 1zm-363 2c0 .5-.2 1-.4 1-.3 0-.8-.5-1.1-1-.3-.6-.1-1 .4-1 .6 0 1.1.4 1.1 1zm446.5 6c.3.5.1 1-.4 1-.6 0-1.1-.5-1.1-1 0-.6.2-1 .4-1 .3 0 .8.4 1.1 1zM63 390c0 .5-.2 1-.4 1-.3 0-.8-.5-1.1-1-.3-.6-.1-1 .4-1 .6 0 1.1.4 1.1 1zm-23 3c0 .5-.4 1-1 1-.5 0-1-.5-1-1 0-.6.5-1 1-1 .6 0 1 .4 1 1zm-32 5.4c0 .3-.4.8-1 1.1-.5.3-1 .1-1-.4 0-.6.5-1.1 1-1.1.6 0 1 .2 1 .4zm399 0c0 .3-.4.8-1 1.1-.5.3-1 .1-1-.4 0-.6.5-1.1 1-1.1.6 0 1 .2 1 .4zm-374 2.1c0 .8-.2 1.5-.4 1.5s-.6-.7-1-1.5c-.3-.8-.1-1.5.4-1.5.6 0 1 .7 1 1.5zm404-1.1c0 1.1-1.9 1.5-2.5.6-.3-.5.1-1 .9-1 .9 0 1.6.2 1.6.4zm-11 2.6c0 .5-.2 1-.4 1-.3 0-.8-.5-1.1-1-.3-.6-.1-1 .4-1 .6 0 1.1.4 1.1 1zm-316.5 1c-.3.5-1 1-1.6 1-.5 0-.9-.5-.9-1 0-.6.7-1 1.6-1 .8 0 1.2.4.9 1zM24 415c0 .5-.5 1-1.1 1-.5 0-.7-.5-.4-1 .3-.6.8-1 1.1-1 .2 0 .4.4.4 1zm86 3.5c-1.3 1.4-2.8 2.5-3.4 2.5-.5 0 .3-1.3 1.9-3 1.6-1.6 3.1-2.8 3.3-2.5.3.3-.5 1.6-1.8 3zm8 1.9c0 .3-.4.8-1 1.1-.5.3-1 .1-1-.4 0-.6.5-1.1 1-1.1.6 0 1 .2 1 .4zm301 4.6c0 .5-.4 1-1 1-.5 0-1-.5-1-1 0-.6.5-1 1-1 .6 0 1 .4 1 1zm68 4c0 .5-.2 1-.4 1-.3 0-.8-.5-1.1-1-.3-.6-.1-1 .4-1 .6 0 1.1.4 1.1 1zm-439 3c0 .5-.4 1-1 1-.5 0-1-.5-1-1 0-.6.5-1 1-1 .6 0 1 .4 1 1zm-39 1c0 .5-.5 1-1.1 1-.5 0-.7-.5-.4-1 .3-.6.8-1 1.1-1 .2 0 .4.4.4 1zm107.9 9.1c-1.9 1.2-2.4.2-.8-1.7.9-1.1 1.4-1.3 1.7-.4.3.7-.2 1.6-.9 2.1zM85.5 441c.3.5.2 1-.4 1-.5 0-1.3-.5-1.6-1-.3-.6-.2-1 .4-1 .5 0 1.3.4 1.6 1zM52 458c0 .5-.5 1-1.1 1-.5 0-.7-.5-.4-1 .3-.6.8-1 1.1-1 .2 0 .4.4.4 1zm77.5 13c.3.5.1 1-.4 1-.6 0-1.1-.5-1.1-1 0-.6.2-1 .4-1 .3 0 .8.4 1.1 1zm-119.5.4c0 .3-.4.8-1 1.1-.5.3-1 .1-1-.4 0-.6.5-1.1 1-1.1.6 0 1 .2 1 .4zm5 8.6c0 .5-.4 1-1 1-.5 0-1-.5-1-1 0-.6.5-1 1-1 .6 0 1 .4 1 1zm438.5 4c.3.5.1 1-.4 1-.6 0-1.1-.5-1.1-1 0-.6.2-1 .4-1 .3 0 .8.4 1.1 1zm-326 8c.3.5.1 1-.4 1-.6 0-1.1-.5-1.1-1 0-.6.2-1 .4-1 .3 0 .8.4 1.1 1zm-99.5.4c0 .3-.4.8-1 1.1-.5.3-1 .1-1-.4 0-.6.5-1.1 1-1.1.6 0 1 .2 1 .4z"/><path d="M428 124.2c-5 4.6-4.6 6.4.6 2.6 4.3-3.2 5.5-5 3.7-5.5-.4-.1-2.4 1.2-4.3 2.9zm3-.9c0 .2-1 1.2-2.2 2.3l-2.3 1.9 1.9-2.3c1.8-2.1 2.6-2.7 2.6-1.9zM431.6 131.5c-1.1.8-1.5 1.5-.9 1.5s1.6-.7 2.3-1.5c1.6-1.9 1.1-1.9-1.4 0zM57 207.4c0 .2.7.9 1.5 1.6 1.3 1.1 1.4 1 .9-.4-.5-1.4-2.4-2.3-2.4-1.2zM61.5 209c.3.5 1 1 1.6 1 .5 0 .9-.5.9-1 0-.6-.7-1-1.6-1-.8 0-1.2.4-.9 1zM45.1 214c-1.8 1.5-1.9 2-.7 2 .9 0 1.6-.5 1.6-1 0-.6 1.5-1 3.3-1 2.4 0 2.8-.3 1.7-1-2.1-1.4-3.2-1.2-5.9 1zM53 214c0 .5.7.7 1.5.4.8-.4 1.5-.8 1.5-1 0-.2-.7-.4-1.5-.4s-1.5.4-1.5 1zM42 222.4c0 .2.7.6 1.5 1 .8.3 1.5.1 1.5-.4 0-.6-.7-1-1.5-1s-1.5.2-1.5.4zM45.3 242.7c1.5.2 3.9.2 5.5 0 1.5-.2.2-.4-2.8-.4s-4.3.2-2.7.4zM435 353.5c-1.1 2-1.1 2.8-.1 3.8 1 .9 1.1.8.5-.6-.3-.9-.1-2.4.6-3.2.7-.9 1.1-1.8.8-2-.3-.3-1.1.6-1.8 2zM144 431.5c-1.9 3-3.8 5.5-4.2 5.5-1.2 0-.9-1 1.3-4.3 2-3.1 2-3.1-1 .3-1.7 1.9-3.1 3.9-3.1 4.4 0 .5.3.6.7.3.3-.4 1.1-.3 1.8.3.8.6 2.2-.8 4.8-4.7 2.1-3.1 3.6-6 3.5-6.5-.2-.4-1.9 1.7-3.8 4.7zM123.7 430.9c-.9 1.6-1.7 3.5-1.7 4.2 0 .7.9-.4 2-2.6 2.3-4.6 2.1-5.7-.3-1.6zM155.6 433.7c-.6 1.4-.5 1.5.5.6.7-.7 1-1.5.7-1.8-.3-.3-.9.2-1.2 1.2zM175.7 438.1c.7.7 1.5 1 1.8.7.3-.3-.2-.9-1.2-1.2-1.4-.6-1.5-.5-.6.5zM181 440.6c0 1.1 11.1 5.5 12.8 5.1 1.4-.3 1.2-.6-.8-1.4-4.8-2-12-4.2-12-3.7zM276.2 461c0 1.9.2 2.7.5 1.7.2-.9.2-2.5 0-3.5-.3-.9-.5-.1-.5 1.8zM277.1 471.6c0 1.1.3 1.4.6.6.3-.7.2-1.6-.1-1.9-.3-.4-.6.2-.5 1.3zM277.7 484c-1.2 9.1.4 28 2.4 28 1.1 0 1.1-1.7-.5-19.5-1.1-12.9-1.2-13.6-1.9-8.5z"/></svg>